<svg xmlns="http://www.w3.org/2000/svg" xmlns:xlink="http://www.w3.org/1999/xlink" width="128" height="128" viewBox="0 0 128 128"><g transform="translate(64 64) scale(1.0454) translate(-63.9375 -63.9375)"><g transform="translate(7 7)"><g transform="translate(0.000000,114.000000) scale(0.100000,-0.100000)"><path d="M93 1121 c-30 -14 -48 -32 -65 -63 l-23 -43 0 -445 0 -445 23 -43
c17 -31 35 -49 65 -63 39 -17 71 -19 477 -19 406 0 438 2 477 19 30 14 48 32
65 63 l23 43 0 445 0 445 -23 43 c-17 31 -35 49 -65 63 -39 17 -71 19 -477 19
-406 0 -438 -2 -477 -19z m377 -391 c10 -25 48 -116 84 -202 l65 -158 -27 0
c-24 0 -30 7 -53 68 l-26 67 -80 3 c-91 3 -89 4 -123 -80 -19 -49 -26 -58 -47
-58 -14 0 -23 4 -21 9 2 5 39 98 83 206 74 181 82 195 104 193 18 -2 28 -14
41 -48z m389 -98 c26 -26 28 -34 33 -142 4 -81 2 -117 -6 -122 -18 -12 -23 -9
-29 12 l-5 21 -34 -21 c-94 -57 -205 22 -157 112 15 27 85 58 135 58 50 0 56
5 42 35 -16 35 -55 48 -109 36 -59 -14 -59 -14 -59 8 0 25 12 29 93 30 62 1
71 -2 96 -27z" fill="#80d4da"/></g></g></g></svg>
